<svg width="38" height="37" viewBox="0 0 38 37" fill="none" xmlns="http://www.w3.org/2000/svg">
<g clip-path="url(#clip0_544_3744)">
<path d="M19.2745 36.4463C29.3889 36.4463 37.5881 28.3874 37.5881 18.4463C37.5881 8.50516 29.3889 0.446289 19.2745 0.446289C9.16021 0.446289 0.960938 8.50516 0.960938 18.4463C0.960938 28.3874 9.16021 36.4463 19.2745 36.4463Z" fill="#5000AE"/>
<path d="M23.952 19.429H20.9342V28.4463H16.362V19.429H14.1875V16.2599H16.362V14.2092C16.362 12.7427 17.2161 10.4463 20.9749 10.4463L24.3617 10.4578V13.5339H21.9044C21.5013 13.5339 20.9345 13.6982 20.9345 14.3978V16.2629H24.3515L23.952 19.429Z" fill="white"/>
</g>
<defs>
<clipPath id="clip0_544_3744">
<rect width="36.6272" height="36" fill="white" transform="translate(0.960938 0.446289)"/>
</clipPath>
</defs>
</svg>
