<svg width="38" height="37" viewBox="0 0 38 37" fill="none" xmlns="http://www.w3.org/2000/svg">
<g clip-path="url(#clip0_544_3753)">
<path d="M19.087 36.4463C29.2014 36.4463 37.4006 28.3874 37.4006 18.4463C37.4006 8.50516 29.2014 0.446289 19.087 0.446289C8.97271 0.446289 0.773438 8.50516 0.773438 18.4463C0.773438 28.3874 8.97271 36.4463 19.087 36.4463Z" fill="#5000AE"/>
<path d="M30.0286 19.8949V27.3159H25.6512V20.3922C25.6512 18.6538 25.0191 17.4666 23.4342 17.4666C22.2247 17.4666 21.5061 18.2659 21.1888 19.0398C21.0736 19.3164 21.0439 19.7005 21.0439 20.0884V27.3156H16.6661C16.6661 27.3156 16.7248 15.5892 16.6661 14.3754H21.0442V16.2091C21.0354 16.2235 21.023 16.2377 21.0151 16.2515H21.0442V16.2091C21.6259 15.3293 22.6634 14.0715 24.9894 14.0715C27.8694 14.0715 30.0286 15.921 30.0286 19.8949ZM12.0865 8.1377C10.5891 8.1377 9.60938 9.10383 9.60938 10.3732C9.60938 11.6156 10.5607 12.6096 12.0291 12.6096H12.0575C13.5843 12.6096 14.5337 11.6156 14.5337 10.3732C14.5046 9.10383 13.5843 8.1377 12.0865 8.1377ZM9.86956 27.3159H14.2457V14.3754H9.86956V27.3159Z" fill="white"/>
</g>
<defs>
<clipPath id="clip0_544_3753">
<rect width="36.6272" height="36" fill="white" transform="translate(0.773438 0.446289)"/>
</clipPath>
</defs>
</svg>
