<svg width="38" height="37" viewBox="0 0 38 37" fill="none" xmlns="http://www.w3.org/2000/svg">
<g clip-path="url(#clip0_544_3748)">
<path d="M19.1806 36.446C29.2948 36.446 37.494 28.3872 37.494 18.4461C37.494 8.50509 29.2948 0.446289 19.1806 0.446289C9.06639 0.446289 0.867188 8.50509 0.867188 18.4461C0.867188 28.3872 9.06639 36.446 19.1806 36.446Z" fill="#5000AE"/>
<path d="M30.3989 12.3819C29.6141 12.7239 28.7699 12.9552 27.8845 13.0586C28.7885 12.5262 29.4822 11.684 29.8096 10.6787C28.9638 11.1719 28.0266 11.5296 27.0299 11.7225C26.2314 10.8866 25.0937 10.3643 23.8339 10.3643C21.4168 10.3643 19.4565 12.291 19.4565 14.6667C19.4565 15.004 19.4953 15.3322 19.5704 15.6473C15.9324 15.4679 12.7067 13.7551 10.5475 11.1513C10.1708 11.7866 9.9547 12.5262 9.9547 13.3146C9.9547 14.8069 10.7281 16.1244 11.902 16.8958C11.1848 16.8736 10.5093 16.6801 9.91944 16.357C9.91912 16.3753 9.91912 16.3936 9.91912 16.4116C9.91912 18.4962 11.4286 20.235 13.4308 20.63C13.0639 20.7288 12.6763 20.7811 12.2777 20.7811C11.995 20.7811 11.7211 20.7545 11.4541 20.7044C12.011 22.4133 13.6273 23.6573 15.5433 23.6923C14.0448 24.8465 12.1576 25.5341 10.1062 25.5341C9.7536 25.5341 9.4043 25.5139 9.0625 25.4737C10.9987 26.695 13.3002 27.407 15.7721 27.407C23.8238 27.407 28.227 20.8511 28.227 15.165C28.227 14.9786 28.2228 14.7928 28.2143 14.6086C29.0702 14.0022 29.8123 13.2447 30.3989 12.3819Z" fill="white"/>
</g>
<defs>
<clipPath id="clip0_544_3748">
<rect width="36.6272" height="36" fill="white" transform="translate(0.867188 0.446289)"/>
</clipPath>
</defs>
</svg>
